<!-- FocusFlow Icon SVG (32x32) -->
<svg width="32" height="32" viewBox="0 0 32 32" xmlns="http://www.w3.org/2000/svg">
  <!-- Background circle with gradient -->
  <defs>
    <linearGradient id="grad1" x1="0%" y1="0%" x2="100%" y2="100%">
      <stop offset="0%" style="stop-color:#3b82f6;stop-opacity:1" />
      <stop offset="100%" style="stop-color:#8b5cf6;stop-opacity:1" />
    </linearGradient>
  </defs>
  
  <circle cx="16" cy="16" r="14" fill="url(#grad1)" stroke="#1d4ed8" stroke-width="2"/>
  
  <!-- Brain representation -->
  <path d="M8 11c0-2 1-3 3-3s3 1 3 3 1 3 3 3 3-1 3-3" 
        fill="none" stroke="white" stroke-width="2" stroke-linecap="round"/>
  <path d="M8 21c0 2 1 3 3 3s3-1 3-3-1-3 3-3 3 1 3 3" 
        fill="none" stroke="white" stroke-width="2" stroke-linecap="round"/>
  
  <!-- Neural connections -->
  <circle cx="11" cy="13" r="1" fill="white" opacity="0.8"/>
  <circle cx="16" cy="16" r="1.5" fill="white"/>
  <circle cx="21" cy="19" r="1" fill="white" opacity="0.8"/>
  
  <!-- Connection lines -->
  <line x1="11" y1="13" x2="16" y2="16" stroke="white" stroke-width="0.5" opacity="0.6"/>
  <line x1="16" y1="16" x2="21" y2="19" stroke="white" stroke-width="0.5" opacity="0.6"/>
</svg>